<?xml version="1.0" encoding="UTF-8"?><svg id="Layer_1" xmlns="http://www.w3.org/2000/svg" viewBox="0 0 16 16"><defs><style>.cls-1{fill:#000;stroke-width:0px;}@media (prefers-color-scheme: dark) {
.cls-1{fill:#fff;}
}</style></defs><polygon class="cls-1" points="8.803589 9.345215 8 10.429993 7.196472 9.345215 7.101379 9.216858 7.5 14 8.5 14 8.89856 9.21698 8.803589 9.345215"/><rect class="cls-1" x="4" y="15" width="8" height="1"/><polygon class="cls-1" points="15.146484 2.853516 13.292969 1 2.707031 1 .853516 2.853516 .146484 2.146484 2.292969 0 13.707031 0 15.853516 2.146484 15.146484 2.853516"/><path class="cls-1" d="M3,2l5,6.75,5-6.75H3ZM11,3l-.75,1h-4.5l-.75-1h6ZM6.5,5h3l-1.5,2-1.5-2Z"/></svg>